<svg xmlns="http://www.w3.org/2000/svg" viewBox="0 0 1200 420"><g transform="translate(44,105.0) scale(0.875)"><path d="M100.80,191.64 L98.92,191.75 L97.07,191.64 L95.23,191.44 L93.38,191.19 L91.55,190.87 L89.71,190.51 L87.87,190.09 L86.04,189.62 L84.22,189.11 L82.40,188.54 L80.59,187.92 L78.79,187.25 L77.01,186.52 L75.24,185.74 L73.49,184.91 L71.76,184.02 L70.05,183.08 L68.37,182.08 L66.72,181.02 L65.10,179.91 L63.52,178.74 L61.97,177.52 L60.47,176.25 L59.01,174.92 L57.59,173.54 L56.22,172.11 L54.90,170.63 L53.63,169.11 L52.42,167.54 L51.26,165.93 L50.15,164.28 L49.10,162.60 L48.11,160.88 L47.18,159.13 L46.30,157.35 L45.48,155.55 L44.71,153.72 L44.00,151.87 L43.35,150.00 L42.74,148.12 L42.19,146.22 L41.69,144.31 L41.24,142.40 L40.84,140.47 L40.48,138.54 L40.17,136.61 L39.89,134.67 L39.66,132.72 L39.47,130.78 L39.32,128.84 L39.20,126.89 L39.12,124.95 L39.07,123.00 L39.06,121.06 L39.08,119.12 L39.13,117.18 L39.22,115.24 L39.34,113.30 L39.49,111.36 L39.67,109.42 L39.90,107.49 L40.15,105.56 L40.44,103.63 L40.77,101.71 L41.14,99.79 L41.54,97.87 L41.99,95.96 L42.48,94.06 L43.01,92.17 L43.59,90.28 L44.21,88.41 L44.87,86.55 L45.59,84.71 L46.35,82.88 L47.16,81.07 L48.02,79.27 L48.92,77.50 L49.88,75.76 L50.89,74.04 L51.94,72.34 L53.04,70.68 L54.19,69.05 L55.39,67.44 L56.63,65.87 L57.91,64.34 L59.24,62.84 L60.61,61.38 L62.02,59.96 L63.47,58.57 L64.95,57.23 L66.47,55.93 L68.03,54.66 L69.62,53.45 L71.24,52.27 L72.90,51.15 L74.59,50.07 L76.31,49.05 L78.06,48.08 L79.85,47.19 L81.67,46.36 L83.52,45.62 L85.41,44.97 L87.34,44.43 L89.30,44.00 L91.28,43.70 L93.30,43.54 L95.34,43.52 L97.38,43.65 L99.44,43.92 L101.48,44.32 L103.51,44.83 L105.51,45.44 L107.47,46.11 L109.39,46.80 L111.26,47.48 L113.08,48.10 L114.85,48.62 L116.59,49.02 L118.30,49.26 L120.00,49.32 L121.70,49.21 L123.41,48.92 L125.16,48.49 L126.94,47.93 L128.77,47.28 L130.64,46.59 L132.57,45.89 L134.53,45.23 L136.53,44.64 L138.56,44.16 L140.59,43.81 L142.63,43.60 L144.65,43.56 L146.66,43.67 L148.63,43.94 L150.56,44.35 L152.46,44.91 L154.30,45.59 L156.11,46.38 L157.86,47.26 L159.58,48.23 L161.24,49.28 L162.87,50.38 L164.46,51.54 L166.00,52.75 L167.52,53.99 L169.00,55.28 L170.44,56.59 L171.86,57.92 L173.24,59.29 L174.60,60.67 L175.93,62.08 L177.24,63.51 L178.52,64.95 L179.78,66.41 L181.01,67.89 L182.22,69.39 L183.41,70.90 L184.58,72.43 L185.72,73.98 L186.85,75.54 L187.95,77.13 L189.02,78.73 L190.07,80.35 L191.10,82.00 L192.10,83.66 L193.07,85.34 L194.01,87.05 L194.92,88.78 L195.79,90.53 L196.63,92.30 L197.42,94.09 L198.18,95.91 L198.89,97.75 L199.56,99.61 L200.17,101.49 L200.74,103.39 L201.25,105.31 L201.71,107.24 L202.11,109.19 L202.45,111.15 L202.73,113.13 L202.95,115.11 L203.11,117.10 L203.20,119.09 L203.22,121.09 L203.19,123.09 L203.08,125.08 L202.92,127.07 L202.68,129.06 L202.39,131.03 L202.03,132.99 L201.61,134.94 L201.13,136.87 L200.59,138.79 L199.99,140.69 L199.34,142.56 L198.64,144.42 L197.88,146.25 L197.08,148.05 L196.23,149.83 L195.33,151.59 L194.39,153.31 L193.41,155.01 L192.39,156.68 L191.33,158.33 L190.23,159.94 L189.10,161.52 L187.94,163.08 L186.75,164.60 L185.52,166.09 L184.27,167.56 L182.99,168.99 L181.67,170.39 L180.34,171.76 L178.97,173.10 L177.58,174.40 L176.16,175.67 L174.71,176.90 L173.24,178.10 L171.74,179.26 L170.22,180.39 L168.68,181.47 L167.11,182.51 L165.51,183.51 L163.89,184.47 L162.26,185.38 L160.59,186.24 L158.91,187.06 L157.21,187.82 L155.49,188.54 L153.75,189.20 L151.99,189.80 L150.22,190.35 L148.44,190.83 L146.64,191.26 L144.83,191.61 L143.01,191.89 L141.18,192.07 L139.30,192.01 L138.68,189.72 L140.22,188.81 L141.78,188.05 L143.34,187.30 L144.87,186.53 L146.39,185.74 L147.90,184.93 L149.37,184.09 L150.83,183.21 L152.27,182.31 L153.68,181.38 L155.06,180.43 L156.42,179.44 L157.76,178.42 L159.07,177.38 L160.35,176.31 L161.61,175.22 L162.85,174.11 L164.05,172.97 L165.24,171.81 L166.39,170.63 L167.52,169.43 L168.63,168.21 L169.71,166.97 L170.77,165.71 L171.80,164.44 L172.81,163.15 L173.80,161.84 L174.76,160.52 L175.70,159.18 L176.61,157.83 L177.50,156.45 L178.36,155.06 L179.19,153.66 L179.99,152.24 L180.77,150.80 L181.52,149.34 L182.23,147.87 L182.91,146.38 L183.56,144.88 L184.17,143.36 L184.74,141.82 L185.28,140.27 L185.77,138.70 L186.22,137.12 L186.62,135.53 L186.97,133.93 L187.28,132.32 L187.54,130.70 L187.75,129.07 L187.91,127.44 L188.01,125.80 L188.06,124.16 L188.06,122.53 L188.00,120.89 L187.89,119.26 L187.73,117.63 L187.52,116.02 L187.25,114.41 L186.93,112.82 L186.57,111.24 L186.15,109.67 L185.70,108.12 L185.19,106.59 L184.65,105.07 L184.07,103.58 L183.45,102.11 L182.79,100.65 L182.10,99.22 L181.38,97.81 L180.64,96.42 L179.87,95.05 L179.07,93.70 L178.26,92.37 L177.42,91.06 L176.57,89.76 L175.70,88.49 L174.81,87.23 L173.91,85.99 L172.99,84.76 L172.07,83.54 L171.13,82.34 L170.17,81.15 L169.21,79.98 L168.23,78.81 L167.23,77.66 L166.23,76.51 L165.20,75.38 L164.17,74.26 L163.11,73.16 L162.04,72.07 L160.94,70.99 L159.83,69.93 L158.70,68.88 L157.54,67.86 L156.36,66.85 L155.15,65.87 L153.92,64.92 L152.66,63.99 L151.38,63.10 L150.07,62.24 L148.73,61.43 L147.36,60.65 L145.97,59.92 L144.55,59.25 L143.10,58.63 L141.63,58.06 L140.14,57.55 L138.63,57.11 L137.10,56.73 L135.56,56.41 L134.01,56.15 L132.45,55.94 L130.89,55.79 L129.32,55.69 L127.76,55.62 L126.20,55.59 L124.65,55.59 L123.09,55.61 L121.54,55.64 L120.00,55.69 L118.46,55.74 L116.92,55.81 L115.38,55.89 L113.84,55.98 L112.30,56.10 L110.75,56.23 L109.21,56.39 L107.67,56.59 L106.14,56.82 L104.61,57.10 L103.08,57.41 L101.57,57.78 L100.06,58.19 L98.57,58.64 L97.09,59.14 L95.63,59.68 L94.18,60.27 L92.75,60.90 L91.34,61.56 L89.95,62.26 L88.57,63.00 L87.21,63.77 L85.87,64.58 L84.55,65.42 L83.25,66.28 L81.98,67.18 L80.72,68.11 L79.49,69.08 L78.29,70.07 L77.11,71.09 L75.96,72.15 L74.83,73.23 L73.74,74.34 L72.68,75.48 L71.65,76.65 L70.65,77.85 L69.68,79.07 L68.76,80.32 L67.86,81.60 L67.01,82.90 L66.19,84.21 L65.41,85.56 L64.66,86.91 L63.96,88.29 L63.29,89.69 L62.65,91.09 L62.05,92.52 L61.49,93.95 L60.96,95.39 L60.46,96.85 L60.00,98.31 L59.56,99.78 L59.16,101.25 L58.78,102.74 L58.43,104.22 L58.11,105.71 L57.81,107.21 L57.53,108.70 L57.27,110.21 L57.04,111.71 L56.83,113.22 L56.63,114.73 L56.45,116.25 L56.30,117.78 L56.16,119.30 L56.04,120.84 L55.94,122.38 L55.86,123.92 L55.80,125.48 L55.77,127.03 L55.75,128.60 L55.77,130.17 L55.80,131.75 L55.87,133.34 L55.97,134.93 L56.10,136.53 L56.26,138.13 L56.46,139.73 L56.70,141.33 L56.98,142.94 L57.30,144.54 L57.66,146.14 L58.07,147.74 L58.52,149.32 L59.03,150.90 L59.58,152.47 L60.18,154.02 L60.83,155.55 L61.53,157.07 L62.28,158.56 L63.09,160.04 L63.94,161.48 L64.84,162.90 L65.79,164.29 L66.79,165.65 L67.83,166.97 L68.92,168.26 L70.05,169.52 L71.21,170.74 L72.42,171.92 L73.66,173.07 L74.94,174.18 L76.24,175.25 L77.58,176.29 L78.95,177.29 L80.33,178.26 L81.75,179.19 L83.18,180.09 L84.63,180.95 L86.10,181.79 L87.59,182.60 L89.09,183.38 L90.60,184.14 L92.13,184.88 L93.66,185.60 L95.21,186.30 L96.77,186.99 L98.33,187.69 L99.90,188.41 L101.43,189.29 Z" fill="#17140F"/><circle cx="120.0" cy="120.0" r="9.2" fill="#C39A43"/></g><g transform="translate(294.00,222.00) scale(0.11200,-0.11200)" fill="#17140F"><path transform="translate(0.0,0)" d="M339 252H233V0H62V702H339Q423 702 481.0 673.0Q539 644 568.0 593.0Q597 542 597 476Q597 415 569.0 364.5Q541 314 483.0 283.0Q425 252 339 252ZM423 476Q423 518 399.0 541.0Q375 564 326 564H233V388H326Q375 388 399.0 411.0Q423 434 423 476Z"/><path transform="translate(654.0,0)" d="M420 0 274 265H233V0H62V702H349Q432 702 490.5 673.0Q549 644 578.0 593.5Q607 543 607 481Q607 411 567.5 356.0Q528 301 451 278L613 0ZM233 386H339Q386 386 409.5 409.0Q433 432 433 474Q433 514 409.5 537.0Q386 560 339 560H233Z"/></g><circle cx="459.59" cy="183.92" r="8.40" fill="#C39A43"/><g transform="translate(478.91,222.00) scale(0.11200,-0.11200)" fill="#17140F"><path transform="translate(0.0,0)" d="M857 702V0H686V421L529 0H391L233 422V0H62V702H264L461 216L656 702Z"/><path transform="translate(948.0,0)" d="M233 702V0H62V702Z"/><path transform="translate(1273.0,0)" d="M690 0H519L233 433V0H62V702H233L519 267V702H690Z"/><path transform="translate(2055.0,0)" d="M693 351Q693 248 647.5 168.0Q602 88 518.5 44.0Q435 0 325 0H62V702H325Q436 702 519.0 658.0Q602 614 647.5 534.5Q693 455 693 351ZM519 351Q519 448 465.0 502.0Q411 556 314 556H233V148H314Q411 148 465.0 201.0Q519 254 519 351Z"/></g><g transform="translate(296.00,260.00) scale(0.02000,-0.02000)" fill="#8A7F68"><path transform="translate(0.0,0)" d="M420 0 274 265H233V0H62V702H349Q432 702 490.5 673.0Q549 644 578.0 593.5Q607 543 607 481Q607 411 567.5 356.0Q528 301 451 278L613 0ZM233 386H339Q386 386 409.5 409.0Q433 432 433 474Q433 514 409.5 537.0Q386 560 339 560H233Z"/><path transform="translate(802.0,0)" d="M233 565V423H462V291H233V137H492V0H62V702H492V565Z"/><path transform="translate(1493.0,0)" d="M339 252H233V0H62V702H339Q423 702 481.0 673.0Q539 644 568.0 593.0Q597 542 597 476Q597 415 569.0 364.5Q541 314 483.0 283.0Q425 252 339 252ZM423 476Q423 518 399.0 541.0Q375 564 326 564H233V388H326Q375 388 399.0 411.0Q423 434 423 476Z"/><path transform="translate(2267.0,0)" d="M230 702V282Q230 219 261.0 185.0Q292 151 352 151Q412 151 444.0 185.0Q476 219 476 282V702H647V283Q647 189 607.0 124.0Q567 59 499.5 26.0Q432 -7 349 -7Q266 -7 200.5 25.5Q135 58 97.0 123.5Q59 189 59 283V702Z"/><path transform="translate(3122.0,0)" d="M567 702V565H381V0H210V565H24V702Z"/><path transform="translate(3863.0,0)" d="M499 124H237L195 0H16L270 702H468L722 0H541ZM455 256 368 513 282 256Z"/><path transform="translate(4750.0,0)" d="M567 702V565H381V0H210V565H24V702Z"/><path transform="translate(5491.0,0)" d="M233 702V0H62V702Z"/><path transform="translate(5936.0,0)" d="M33 353Q33 456 81.5 538.0Q130 620 212.5 666.0Q295 712 394 712Q493 712 575.5 666.0Q658 620 705.5 538.0Q753 456 753 353Q753 250 705.0 167.5Q657 85 575.0 39.0Q493 -7 394 -7Q295 -7 212.5 39.0Q130 85 81.5 167.5Q33 250 33 353ZM579 353Q579 446 528.5 501.5Q478 557 394 557Q309 557 258.5 502.0Q208 447 208 353Q208 260 258.5 204.5Q309 149 394 149Q478 149 528.5 205.0Q579 261 579 353Z"/><path transform="translate(6872.0,0)" d="M690 0H519L233 433V0H62V702H233L519 267V702H690Z"/><path transform="translate(7774.0,0)" d=""/><path transform="translate(8136.0,0)" d="M50 314Q50 354 78.5 381.0Q107 408 152 408Q196 408 224.5 381.0Q253 354 253 314Q253 275 224.5 248.5Q196 222 152 222Q107 222 78.5 248.5Q50 275 50 314Z"/><path transform="translate(8585.0,0)" d=""/><path transform="translate(8947.0,0)" d="M420 0 274 265H233V0H62V702H349Q432 702 490.5 673.0Q549 644 578.0 593.5Q607 543 607 481Q607 411 567.5 356.0Q528 301 451 278L613 0ZM233 386H339Q386 386 409.5 409.0Q433 432 433 474Q433 514 409.5 537.0Q386 560 339 560H233Z"/><path transform="translate(9749.0,0)" d="M233 565V423H462V291H233V137H492V0H62V702H492V565Z"/><path transform="translate(10440.0,0)" d="M42 210H224Q228 171 251.0 150.5Q274 130 311 130Q349 130 371.0 147.5Q393 165 393 196Q393 222 375.5 239.0Q358 256 332.5 267.0Q307 278 260 292Q192 313 149.0 334.0Q106 355 75.0 396.0Q44 437 44 503Q44 601 115.0 656.5Q186 712 300 712Q416 712 487.0 656.5Q558 601 563 502H378Q376 536 353.0 555.5Q330 575 294 575Q263 575 244.0 558.5Q225 542 225 511Q225 477 257.0 458.0Q289 439 357 417Q425 394 467.5 373.0Q510 352 541.0 312.0Q572 272 572 209Q572 149 541.5 100.0Q511 51 453.0 22.0Q395 -7 316 -7Q239 -7 178.0 18.0Q117 43 80.5 92.0Q44 141 42 210Z"/><path transform="translate(11205.0,0)" d="M233 702V0H62V702Z"/><path transform="translate(11650.0,0)" d="M233 132H457V0H62V702H233Z"/><path transform="translate(12277.0,0)" d="M233 702V0H62V702Z"/><path transform="translate(12722.0,0)" d="M233 565V423H462V291H233V137H492V0H62V702H492V565Z"/><path transform="translate(13413.0,0)" d="M690 0H519L233 433V0H62V702H233L519 267V702H690Z"/><path transform="translate(14315.0,0)" d="M386 710Q511 710 600.0 644.0Q689 578 719 464H531Q510 508 471.5 531.0Q433 554 384 554Q305 554 256.0 499.0Q207 444 207 352Q207 260 256.0 205.0Q305 150 384 150Q433 150 471.5 173.0Q510 196 531 240H719Q689 126 600.0 60.5Q511 -5 386 -5Q284 -5 203.5 40.5Q123 86 78.0 167.0Q33 248 33 352Q33 456 78.0 537.5Q123 619 203.5 664.5Q284 710 386 710Z"/><path transform="translate(15227.0,0)" d="M233 565V423H462V291H233V137H492V0H62V702H492V565Z"/><path transform="translate(15918.0,0)" d=""/><path transform="translate(16280.0,0)" d="M50 314Q50 354 78.5 381.0Q107 408 152 408Q196 408 224.5 381.0Q253 354 253 314Q253 275 224.5 248.5Q196 222 152 222Q107 222 78.5 248.5Q50 275 50 314Z"/><path transform="translate(16729.0,0)" d=""/><path transform="translate(17091.0,0)" d="M420 0 274 265H233V0H62V702H349Q432 702 490.5 673.0Q549 644 578.0 593.5Q607 543 607 481Q607 411 567.5 356.0Q528 301 451 278L613 0ZM233 386H339Q386 386 409.5 409.0Q433 432 433 474Q433 514 409.5 537.0Q386 560 339 560H233Z"/><path transform="translate(17893.0,0)" d="M233 565V423H462V291H233V137H492V0H62V702H492V565Z"/><path transform="translate(18584.0,0)" d="M499 124H237L195 0H16L270 702H468L722 0H541ZM455 256 368 513 282 256Z"/><path transform="translate(19471.0,0)" d="M42 210H224Q228 171 251.0 150.5Q274 130 311 130Q349 130 371.0 147.5Q393 165 393 196Q393 222 375.5 239.0Q358 256 332.5 267.0Q307 278 260 292Q192 313 149.0 334.0Q106 355 75.0 396.0Q44 437 44 503Q44 601 115.0 656.5Q186 712 300 712Q416 712 487.0 656.5Q558 601 563 502H378Q376 536 353.0 555.5Q330 575 294 575Q263 575 244.0 558.5Q225 542 225 511Q225 477 257.0 458.0Q289 439 357 417Q425 394 467.5 373.0Q510 352 541.0 312.0Q572 272 572 209Q572 149 541.5 100.0Q511 51 453.0 22.0Q395 -7 316 -7Q239 -7 178.0 18.0Q117 43 80.5 92.0Q44 141 42 210Z"/><path transform="translate(20236.0,0)" d="M33 353Q33 456 81.5 538.0Q130 620 212.5 666.0Q295 712 394 712Q493 712 575.5 666.0Q658 620 705.5 538.0Q753 456 753 353Q753 250 705.0 167.5Q657 85 575.0 39.0Q493 -7 394 -7Q295 -7 212.5 39.0Q130 85 81.5 167.5Q33 250 33 353ZM579 353Q579 446 528.5 501.5Q478 557 394 557Q309 557 258.5 502.0Q208 447 208 353Q208 260 258.5 204.5Q309 149 394 149Q478 149 528.5 205.0Q579 261 579 353Z"/><path transform="translate(21172.0,0)" d="M690 0H519L233 433V0H62V702H233L519 267V702H690Z"/></g></svg>